<?xml version="1.0" standalone="no"?><!DOCTYPE svg PUBLIC "-//W3C//DTD SVG 1.1//EN" "http://www.w3.org/Graphics/SVG/1.1/DTD/svg11.dtd"><svg t="1662274957401" class="icon" viewBox="0 0 1024 1024" version="1.1" xmlns="http://www.w3.org/2000/svg" p-id="20030" xmlns:xlink="http://www.w3.org/1999/xlink" width="256" height="256"><path d="M886.624 297.376L694.656 105.408a31.52 31.52 0 0 0-10.336-6.912A31.52 31.52 0 0 0 672 96H224c-52.928 0-96 43.072-96 96v640c0 52.928 43.072 96 96 96h576c52.928 0 96-43.072 96-96V320a31.904 31.904 0 0 0-9.376-22.624zM704 205.248L818.752 320H704V205.248zM800 864H224c-17.632 0-32-14.336-32-32V192c0-17.632 14.368-32 32-32h416v192a32 32 0 0 0 32 32h160v448a32 32 0 0 1-32 32zM288 352h192a32 32 0 0 0 0-64H288a32 32 0 0 0 0 64z m320 128H288a32 32 0 0 0 0 64h320a32 32 0 1 0 0-64z m0 192H288a32 32 0 1 0 0 64h320a32 32 0 1 0 0-64z" fill="#1296db" p-id="20031"></path></svg>