<?xml version="1.0" standalone="no"?><!DOCTYPE svg PUBLIC "-//W3C//DTD SVG 1.1//EN" "http://www.w3.org/Graphics/SVG/1.1/DTD/svg11.dtd"><svg t="1662974499313" class="icon" viewBox="0 0 1024 1024" version="1.1" xmlns="http://www.w3.org/2000/svg" p-id="8974" xmlns:xlink="http://www.w3.org/1999/xlink" width="256" height="256"><path d="M85.333333 170.666667a85.333333 85.333333 0 0 1 85.333334-85.333334h426.666666a85.333333 85.333333 0 0 1 85.333334 85.333334v170.666666h170.666666a85.333333 85.333333 0 0 1 85.333334 85.333334v426.666666a85.333333 85.333333 0 0 1-85.333334 85.333334H426.666667a85.333333 85.333333 0 0 1-85.333334-85.333334v-170.666666H170.666667a85.333333 85.333333 0 0 1-85.333334-85.333334V170.666667z m341.333334 512v170.666666h426.666666V426.666667h-170.666666v170.666666a85.333333 85.333333 0 0 1-85.333334 85.333334h-170.666666z m170.666666-85.333334V170.666667H170.666667v426.666666h426.666666z" fill="#dbdbdb" p-id="8975"></path></svg>