<?xml version="1.0" standalone="no"?><!DOCTYPE svg PUBLIC "-//W3C//DTD SVG 1.1//EN" "http://www.w3.org/Graphics/SVG/1.1/DTD/svg11.dtd"><svg t="1662974255860" class="icon" viewBox="0 0 1024 1024" version="1.1" xmlns="http://www.w3.org/2000/svg" p-id="7575" width="256" height="256" xmlns:xlink="http://www.w3.org/1999/xlink"><path d="M912.327111 213.333333c33.735111 17.066667 54.784 55.466667 54.784 98.133334v401.066666c0 42.666667-21.048889 76.8-54.784 98.133334l-345.543111 200.533333c-33.735111 17.066667-75.832889 17.066667-109.568 0L111.672889 810.666667C77.937778 793.6 56.888889 755.2 56.888889 712.533333v-401.066666c0-42.666667 21.048889-76.8 54.784-98.133334L457.216 12.8c33.735111-17.066667 75.832889-17.066667 109.568 0l345.543111 200.533333zM544.654222 927.971556l320.284445-181.191112c12.629333-8.533333 20.821333-20.024889 20.821333-37.091555v-381.155556c-224.597333 136.135111-338.318222 204.231111-341.105778 204.231111v395.207112z m-66.389333 0V534.186667c-5.575111-2.844444-119.068444-71.395556-340.48-205.653334v383.146667c0 17.066667 24.462222 30.378667 32.881778 38.912l307.598222 177.379556z m368.071111-664.177778L530.887111 80.896a30.833778 30.833778 0 0 0-37.660444 0l-312.32 182.897778 312.32 187.904c12.515556 8.533333 25.088 8.533333 37.660444 0l315.562667-187.904z" fill="#d42379" p-id="7576"></path></svg>