<svg t="1662345424957" class="icon" viewBox="0 0 1024 1024" version="1.1" xmlns="http://www.w3.org/2000/svg" p-id="20252" width="256" height="256"><path d="M240.341333 426.666667l-89.6 341.333333V341.333333h725.333334a85.333333 85.333333 0 0 0-85.333334-85.333333h-298.666666l-85.333334-85.333333h-256a85.333333 85.333333 0 0 0-85.333333 85.333333v512a85.333333 85.333333 0 0 0 85.333333 85.333333h640a82.346667 82.346667 0 0 0 81.066667-64l85.333333-308.906666a42.666667 42.666667 0 0 0-42.666666-53.76h-674.133334m550.4 341.333333h-554.666666l68.266666-256h554.666667l-68.266667 256z" p-id="20253" fill="#dbdbdb"></path></svg>