<svg t="1662344792988" class="icon" viewBox="0 0 1024 1024" version="1.1" xmlns="http://www.w3.org/2000/svg" p-id="10810" width="256" height="256"><path d="M976.64 509.44a230.4 230.4 0 0 0-86.784-68.608 358.4 358.4 0 0 0-355.84-322.56 352.768 352.768 0 0 0-215.808 72.704 364.288 364.288 0 0 0-76.8 80.896 360.192 360.192 0 0 0-38.656 72.704 270.08 270.08 0 0 0-28.416 512 51.2 51.2 0 0 0 18.432 3.328 51.2 51.2 0 0 0 18.432-99.072 167.68 167.68 0 0 1-76.8-60.416A167.68 167.68 0 0 1 245.76 439.552l19.456-2.048v-4.096l2.816-1.536 7.168-5.632a5.888 5.888 0 0 0 1.536-1.792l8.704-11.008 2.304-4.608V404.48a257.792 257.792 0 0 1 90.624-130.816 256 256 0 0 1 409.6 203.008 57.344 57.344 0 0 0 40.96 51.2A125.696 125.696 0 0 1 921.6 648.448a134.4 134.4 0 0 1-29.696 76.8 76.8 76.8 0 0 1-48.64 33.792 51.2 51.2 0 0 0 0 102.4 171.264 171.264 0 0 0 129.536-74.24 238.336 238.336 0 0 0 51.2-139.008 225.28 225.28 0 0 0-47.36-138.752z" p-id="10811" fill="#cdcdcd"></path><path d="M706.816 714.24H313.344a52.736 52.736 0 0 0-33.792 12.544l-2.56 2.56a48.896 48.896 0 0 0-14.08 27.392 32 32 0 0 0 0 9.728 48.896 48.896 0 0 0 12.8 33.024l104.96 116.736a51.2 51.2 0 0 0 38.4 17.152 49.152 49.152 0 0 0 34.048-13.312 51.2 51.2 0 0 0 16.896-38.144 51.2 51.2 0 0 0-13.056-34.048l-28.672-31.232H706.56a51.2 51.2 0 1 0 0-102.4zM640 471.552a51.2 51.2 0 0 0-35.328-17.152 51.2 51.2 0 0 0-37.12 13.056 51.2 51.2 0 0 0-4.096 72.448l27.904 31.232H313.344a54.016 54.016 0 0 0-36.096 14.848 51.2 51.2 0 0 0 36.096 87.808h393.472a51.2 51.2 0 0 0 32.512-11.776l3.84-3.328a52.736 52.736 0 0 0 14.336-27.392 67.584 67.584 0 0 0 0-9.728 53.248 53.248 0 0 0-12.8-33.28z" p-id="10812" fill="#cdcdcd"></path></svg>