<?xml version="1.0" standalone="no"?><!DOCTYPE svg PUBLIC "-//W3C//DTD SVG 1.1//EN" "http://www.w3.org/Graphics/SVG/1.1/DTD/svg11.dtd"><svg t="1589730177209" class="icon" viewBox="0 0 1024 1024" version="1.1" xmlns="http://www.w3.org/2000/svg" p-id="2254" xmlns:xlink="http://www.w3.org/1999/xlink" width="128" height="128"><defs><style type="text/css"></style></defs><path d="M706.14 649.286L915.664 859.07a8 8 0 0 1 0 11.307l-45.216 45.27a8 8 0 0 1-11.32 0l-209.393-209.65c-57.193 45.261-129.451 72.278-208.012 72.278C256.309 778.275 106 627.781 106 442.138 106 256.494 256.309 106 441.724 106s335.724 150.494 335.724 336.138c0 78.145-26.634 150.063-71.309 207.148z m-264.416 48.956c141.269 0 255.79-114.662 255.79-256.104 0-141.443-114.521-256.105-255.79-256.105s-255.79 114.662-255.79 256.105c0 141.442 114.521 256.104 255.79 256.104z" p-id="2255" fill="#ffffff"></path></svg>