<svg t="1662219805168" class="icon" viewBox="0 0 1024 1024" version="1.1" xmlns="http://www.w3.org/2000/svg" p-id="1387" width="256" height="256"><path d="M548.095098 828.932877h118.525036c6.655834 0 12.031699-5.452664 12.0317-12.185296v-0.409589l-3.635109-107.773306a36.735082 36.735082 0 0 1 16.127596-31.743207c90.186545-60.619285 145.506762-162.78633 145.506763-274.553136 0-181.755456-145.353166-329.130972-324.651084-329.130971-179.297918 0-324.651084 147.349916-324.651084 329.130971 0 111.792405 55.345816 213.98505 145.583561 274.578736 9.727757 6.527837 15.718007 17.407565 16.127596 29.234469l3.763106 111.075623c0.230394 6.579036 5.555061 11.775706 12.0317 11.775706h111.075623V581.361466l-86.39784-93.079273a36.939877 36.939877 0 0 1-8.268594-35.58311 36.274293 36.274293 0 0 1 26.264944-25.087373c12.543686-2.969526 25.727357 1.023974 34.559136 10.546936l71.422214 76.951676 81.917952-78.462038a35.736707 35.736707 0 0 1 51.019525 1.459163 36.939877 36.939877 0 0 1-1.459164 51.710708l-96.919177 92.79768v246.317042zM908.79008 402.268343c0.102397 127.689608-59.646509 247.801805-161.019974 323.575911l2.995125 87.959401c0.767981 23.141821-7.731007 45.59246-23.60261 62.232044a83.633109 83.633109 0 0 1-60.542487 26.034549H364.80368c-45.336467 0-82.532337-36.453489-84.093898-82.40434l-3.148721-92.79768c-102.141446-75.722907-162.453539-196.321492-162.351141-324.599885C115.20992 180.117097 292.869478 0 512 0c219.130522 0 396.79008 180.117097 396.79008 402.268343zM403.791505 1023.974401c-19.916302 0-36.095098-16.38359-36.095097-36.581486s16.178796-36.555886 36.095097-36.555886h216.41699c19.916302 0 36.095098 16.38359 36.095097 36.555886 0 20.223494-16.178796 36.581485-36.095097 36.581486h-216.41699z" fill="#000000" p-id="1388"></path></svg>